# xmcd
#
# Track frame offsets:
# 150
# 15626
# 35238
# 56124
# 74018
# 95554
# 114937
# 139422
# 157776
# 178963
# 194141
# 215362
#
# Disc length: 3125 seconds
#
#
# Revision: 0
# Processed by: cddbd v1.5.1PL2 Copyright (c) Steve Scherf et al.
# Submitted via: FreeRIP 2.943 
#
DISCID=ba0c330c
DTITLE=Kenny Chesney - Be As You Are (Songs From An Old Blue Chair)
DYEAR=2005
DGENRE=Country
TTITLE0=Old Blue Chair
TTITLE1=Be As You Are
TTITLE2=Guitars And Tiki Bars
TTITLE3=Island Boy
TTITLE4=Somewhere In The Sun
TTITLE5=Boston
TTITLE6=Something Sexy About The Rain
TTITLE7=French Kissing Life
TTITLE8=Key Lime Pie
TTITLE9=Sherry's Living In Paradise
TTITLE10=Magic
TTITLE11=Soul Of A Sailor
EXTD=
EXTT0=
EXTT1=
EXTT2=
EXTT3=
EXTT4=
EXTT5=
EXTT6=
EXTT7=
EXTT8=
EXTT9=
EXTT10=
EXTT11=
PLAYORDER=
